<svg xmlns="http://www.w3.org/2000/svg" width="600" height="600" viewBox="0 0 600 600">
  <defs>
    <!-- Gradient for water -->
    <linearGradient id="oceanGradient" x1="0%" y1="0%" x2="100%" y2="100%">
      <stop offset="0%" style="stop-color:#01579B;stop-opacity:0.8" />
      <stop offset="50%" style="stop-color:#0277BD;stop-opacity:0.7" />
      <stop offset="100%" style="stop-color:#0288D1;stop-opacity:0.6" />
    </linearGradient>
    
    <!-- Pattern definition -->
    <pattern id="waterPattern" width="200" height="200" patternUnits="userSpaceOnUse">
      <!-- Wave lines -->
      <path d="M0,50 C50,30 100,70 150,50 C200,30 250,70 300,50" fill="none" stroke="#4FC3F7" stroke-width="2" stroke-opacity="0.2" />
      <path d="M0,100 C50,80 100,120 150,100 C200,80 250,120 300,100" fill="none" stroke="#4FC3F7" stroke-width="2" stroke-opacity="0.2" />
      <path d="M0,150 C50,130 100,170 150,150 C200,130 250,170 300,150" fill="none" stroke="#4FC3F7" stroke-width="2" stroke-opacity="0.2" />
      
      <!-- Subtle circular ripples -->
      <circle cx="50" cy="50" r="20" fill="none" stroke="#4DD0E1" stroke-width="1" stroke-opacity="0.15" />
      <circle cx="150" cy="100" r="30" fill="none" stroke="#4DD0E1" stroke-width="1" stroke-opacity="0.15" />
      <circle cx="75" cy="150" r="15" fill="none" stroke="#4DD0E1" stroke-width="1" stroke-opacity="0.15" />
    </pattern>
  </defs>
  
  <!-- Main water rectangle using the pattern -->
  <rect width="100%" height="100%" fill="url(#oceanGradient)" />
  <rect width="100%" height="100%" fill="url(#waterPattern)" />
</svg>
