<svg xmlns="http://www.w3.org/2000/svg" viewBox="0 0 800 600" preserveAspectRatio="xMidYMid meet">
  <!-- Water surface with waves -->
  <path fill="#01579B" d="M0,400 C100,380 200,420 300,390 C400,360 500,400 600,380 C700,360 800,390 800,400 L800,600 L0,600 Z" fill-opacity="0.8"></path>
  
  <!-- Surfer silhouette -->
  <path fill="#000000" d="M500,200 C530,190 550,310 570,350 C580,370 560,390 540,380 C520,370 480,360 470,340 C460,320 470,210 500,200 Z" fill-opacity="0.7"></path>
  
  <!-- Surfboard -->
  <path fill="#333333" d="M450,340 C480,330 510,310 520,340 C530,370 500,390 480,380 C460,370 430,350 450,340 Z" fill-opacity="0.8"></path>
  
  <!-- Sun with gradient -->
  <defs>
    <radialGradient id="sunGradient" cx="50%" cy="50%" r="50%" fx="50%" fy="50%">
      <stop offset="0%" style="stop-color:#FFEB3B;stop-opacity:1" />
      <stop offset="100%" style="stop-color:#FF9800;stop-opacity:0.5" />
    </radialGradient>
  </defs>
  <circle cx="150" cy="150" r="80" fill="url(#sunGradient)"></circle>
  
  <!-- Glow effect -->
  <circle cx="150" cy="150" r="100" fill="none" stroke="#FFEB3B" stroke-width="5" stroke-opacity="0.3"></circle>
  <circle cx="150" cy="150" r="120" fill="none" stroke="#FFEB3B" stroke-width="3" stroke-opacity="0.2"></circle>
  
  <!-- Futuristic lines across the sky -->
  <line x1="0" y1="100" x2="800" y2="100" stroke="#4FC3F7" stroke-width="1" stroke-opacity="0.3"></line>
  <line x1="0" y1="150" x2="800" y2="150" stroke="#4FC3F7" stroke-width="1" stroke-opacity="0.2"></line>
  <line x1="0" y1="200" x2="800" y2="200" stroke="#4FC3F7" stroke-width="1" stroke-opacity="0.1"></line>
</svg>
