<svg xmlns="http://www.w3.org/2000/svg" viewBox="0 0 1440 320" preserveAspectRatio="none">
  <path fill="#0277BD" fill-opacity="0.2" d="M0,32L48,37.3C96,43,192,53,288,90.7C384,128,480,192,576,202.7C672,213,768,171,864,160C960,149,1056,171,1152,186.7C1248,203,1344,213,1392,218.7L1440,224L1440,320L1392,320C1344,320,1248,320,1152,320C1056,320,960,320,864,320C768,320,672,320,576,320C480,320,384,320,288,320C192,320,96,320,48,320L0,320Z"></path>
  <path fill="#4DD0E1" fill-opacity="0.15" d="M0,96L48,117.3C96,139,192,181,288,170.7C384,160,480,96,576,101.3C672,107,768,181,864,208C960,235,1056,213,1152,197.3C1248,181,1344,171,1392,165.3L1440,160L1440,320L1392,320C1344,320,1248,320,1152,320C1056,320,960,320,864,320C768,320,672,320,576,320C480,320,384,320,288,320C192,320,96,320,48,320L0,320Z"></path>
  <path fill="#58B0D8" fill-opacity="0.1" d="M0,192L48,176C96,160,192,128,288,138.7C384,149,480,203,576,213.3C672,224,768,192,864,181.3C960,171,1056,181,1152,165.3C1248,149,1344,107,1392,85.3L1440,64L1440,320L1392,320C1344,320,1248,320,1152,320C1056,320,960,320,864,320C768,320,672,320,576,320C480,320,384,320,288,320C192,320,96,320,48,320L0,320Z"></path>
</svg>
